<svg viewBox="0 0 1000 600" xmlns="http://www.w3.org/2000/svg">
  <defs>
    <linearGradient id="grad1" x1="0%" y1="0%" x2="100%" y2="0%">
      <stop offset="0%" style="stop-color:#4F46E5;stop-opacity:1" />
      <stop offset="100%" style="stop-color:#7C3AED;stop-opacity:1" />
    </linearGradient>
    <linearGradient id="grad2" x1="0%" y1="0%" x2="100%" y2="0%">
      <stop offset="0%" style="stop-color:#059669;stop-opacity:1" />
      <stop offset="100%" style="stop-color:#0891B2;stop-opacity:1" />
    </linearGradient>
    <linearGradient id="grad3" x1="0%" y1="0%" x2="100%" y2="0%">
      <stop offset="0%" style="stop-color:#DC2626;stop-opacity:1" />
      <stop offset="100%" style="stop-color:#EA580C;stop-opacity:1" />
    </linearGradient>
    <marker id="arrowhead" markerWidth="10" markerHeight="7" refX="9" refY="3.5" orient="auto">
      <polygon points="0 0, 10 3.5, 0 7" fill="#374151"/>
    </marker>
  </defs>
  
  <!-- Title -->
  <text x="500" y="30" text-anchor="middle" font-family="Arial, sans-serif" font-size="22" font-weight="bold" fill="#1F2937">
    Robust Graph Classification with Noisy Labels
  </text>
  
  <!-- Input Graphs Section -->
  <rect x="30" y="60" width="180" height="140" rx="10" fill="#F3F4F6" stroke="#D1D5DB" stroke-width="2"/>
  <text x="120" y="85" text-anchor="middle" font-family="Arial, sans-serif" font-size="14" font-weight="bold" fill="#374151">Input Graphs</text>
  
  <!-- Graph visualization -->
  <g transform="translate(50, 100)">
    <!-- Graph 1 -->
    <circle cx="30" cy="20" r="4" fill="#4F46E5"/>
    <circle cx="50" cy="10" r="4" fill="#4F46E5"/>
    <circle cx="60" cy="30" r="4" fill="#4F46E5"/>
    <circle cx="40" cy="40" r="4" fill="#4F46E5"/>
    <line x1="30" y1="20" x2="50" y2="10" stroke="#6B7280" stroke-width="2"/>
    <line x1="50" y1="10" x2="60" y2="30" stroke="#6B7280" stroke-width="2"/>
    <line x1="30" y1="20" x2="40" y2="40" stroke="#6B7280" stroke-width="2"/>
    <line x1="40" y1="40" x2="60" y2="30" stroke="#6B7280" stroke-width="2"/>
    
    <!-- Graph 2 -->
    <circle cx="110" cy="15" r="4" fill="#7C3AED"/>
    <circle cx="130" cy="25" r="4" fill="#7C3AED"/>
    <circle cx="120" cy="45" r="4" fill="#7C3AED"/>
    <line x1="110" y1="15" x2="130" y2="25" stroke="#6B7280" stroke-width="2"/>
    <line x1="130" y1="25" x2="120" y2="45" stroke="#6B7280" stroke-width="2"/>
    <line x1="110" y1="15" x2="120" y2="45" stroke="#6B7280" stroke-width="2"/>
  </g>
  
  <text x="120" y="175" text-anchor="middle" font-family="Arial, sans-serif" font-size="11" fill="#6B7280">
    + Edge Dropping (augmentation)
  </text>
  
  <!-- Arrow 1 - Made straight -->
  <line x1="230" y1="130" x2="270" y2="130" stroke="#374151" stroke-width="3" marker-end="url(#arrowhead)"/>
  
  <!-- GNN Architecture Section -->
  <rect x="290" y="60" width="280" height="400" rx="10" fill="url(#grad1)" fill-opacity="0.1" stroke="#4F46E5" stroke-width="2"/>
  <text x="430" y="85" text-anchor="middle" font-family="Arial, sans-serif" font-size="16" font-weight="bold" fill="#1F2937">GNN Architecture</text>
  
  <!-- Virtual Node -->
  <rect x="310" y="100" width="240" height="30" rx="5" fill="#EDE9FE" stroke="#7C3AED" stroke-width="1"/>
  <text x="430" y="120" text-anchor="middle" font-family="Arial, sans-serif" font-size="12" fill="#5B21B6">Virtual Node (global information)</text>
  
  <!-- GIN Layers -->
  <g transform="translate(310, 140)">
    <rect x="0" y="0" width="240" height="35" rx="5" fill="#DBEAFE" stroke="#3B82F6" stroke-width="1"/>
    <text x="120" y="23" text-anchor="middle" font-family="Arial, sans-serif" font-size="12" font-weight="bold" fill="#1E40AF">GIN Layer 1 + BatchNorm + Dropout</text>
    
    <rect x="0" y="45" width="240" height="35" rx="5" fill="#DBEAFE" stroke="#3B82F6" stroke-width="1"/>
    <text x="120" y="68" text-anchor="middle" font-family="Arial, sans-serif" font-size="12" font-weight="bold" fill="#1E40AF">GIN Layer 2 + BatchNorm + Dropout</text>
    
    <rect x="0" y="90" width="240" height="35" rx="5" fill="#DBEAFE" stroke="#3B82F6" stroke-width="1"/>
    <text x="120" y="113" text-anchor="middle" font-family="Arial, sans-serif" font-size="12" font-weight="bold" fill="#1E40AF">GIN Layer 3 + BatchNorm + Dropout</text>
    
    <!-- Residual connections -->
    <path d="M -10 18 Q -25 18 -25 63 Q -25 108 -10 108" stroke="#EF4444" stroke-width="2" fill="none" stroke-dasharray="3,3"/>
    <text x="-35" y="65" text-anchor="middle" font-family="Arial, sans-serif" font-size="10" fill="#DC2626" transform="rotate(-90, -35, 65)">Residual</text>
  </g>
  
  <!-- Jumping Knowledge -->
  <rect x="310" y="270" width="240" height="30" rx="5" fill="#FEF3C7" stroke="#F59E0B" stroke-width="1"/>
  <text x="430" y="290" text-anchor="middle" font-family="Arial, sans-serif" font-size="12" fill="#92400E">Jumping Knowledge (JK): "last" or "sum"</text>
  
  <!-- Graph Pooling -->
  <rect x="310" y="310" width="240" height="35" rx="5" fill="#D1FAE5" stroke="#059669" stroke-width="1"/>
  <text x="430" y="333" text-anchor="middle" font-family="Arial, sans-serif" font-size="12" font-weight="bold" fill="#047857">Graph Pooling: Mean/Max/Attention</text>
  
  <!-- Final Linear Layer -->
  <rect x="310" y="355" width="240" height="35" rx="5" fill="#F3E8FF" stroke="#8B5CF6" stroke-width="1"/>
  <text x="430" y="378" text-anchor="middle" font-family="Arial, sans-serif" font-size="12" font-weight="bold" fill="#6D28D9">Linear Layer → Predictions</text>
  
  <!-- Architecture details -->
  <text x="430" y="410" text-anchor="middle" font-family="Arial, sans-serif" font-size="10" fill="#4B5563">
    • Embedding Dim: 128-218 • Batch Size: 64
  </text>
  <text x="430" y="425" text-anchor="middle" font-family="Arial, sans-serif" font-size="10" fill="#4B5563">
    • Adam Optimizer (lr=5e-3) • ReduceLROnPlateau
  </text>
  
  <!-- Arrow 2 - Made straight -->
  <line x1="590" y1="260" x2="630" y2="260" stroke="#374151" stroke-width="3" marker-end="url(#arrowhead)"/>
  
  <!-- Loss Functions Section - Updated to show only CGE -->
  <rect x="650" y="180" width="220" height="160" rx="10" fill="url(#grad2)" fill-opacity="0.1" stroke="#059669" stroke-width="2"/>
  <text x="760" y="205" text-anchor="middle" font-family="Arial, sans-serif" font-size="14" font-weight="bold" fill="#1F2937">Noise-Robust Loss</text>
  
  <!-- CGE Loss - Now the main focus -->
  <rect x="670" y="220" width="180" height="100" rx="5" fill="#ECFDF5" stroke="#10B981" stroke-width="3"/>
  <text x="760" y="240" text-anchor="middle" font-family="Arial, sans-serif" font-size="14" font-weight="bold" fill="#065F46">Generalized Cross-Entropy</text>
  <text x="760" y="255" text-anchor="middle" font-family="Arial, sans-serif" font-size="14" font-weight="bold" fill="#065F46">(CGE)</text>
  <text x="760" y="275" text-anchor="middle" font-family="Arial, sans-serif" font-size="12" fill="#047857">Used for All Datasets</text>
  <text x="760" y="290" text-anchor="middle" font-family="Arial, sans-serif" font-size="11" fill="#065F46">q ∈ [0.7, 0.9]</text>
  <text x="760" y="305" text-anchor="middle" font-family="Arial, sans-serif" font-size="10" fill="#6B7280">Down-weights noisy samples</text>
  
  <!-- Arrow 3 - Made straight -->
  <line x1="890" y1="260" x2="930" y2="260" stroke="#374151" stroke-width="3" marker-end="url(#arrowhead)"/>
  
  <!-- Result -->
  <rect x="950" y="220" width="140" height="80" rx="10" fill="#F0FDF4" stroke="#16A34A" stroke-width="2"/>
  <text x="1020" y="245" text-anchor="middle" font-family="Arial, sans-serif" font-size="14" font-weight="bold" fill="#15803D">Final</text>
  <text x="1020" y="265" text-anchor="middle" font-family="Arial, sans-serif" font-size="14" font-weight="bold" fill="#15803D">Predictions</text>
  <text x="1020" y="285" text-anchor="middle" font-family="Arial, sans-serif" font-size="11" fill="#16A34A">Robust to noisy labels</text>
</svg>